<svg xmlns="http://www.w3.org/2000/svg" width="36" height="36" viewBox="0 0 36 36">
  <g id="icon-FREE-Money_off" data-name="icon-FREE-Money off" transform="translate(-100 -255.004)">
    <g id="Ellipse_356" data-name="Ellipse 356" transform="translate(100 255.004)" fill="#f0f2f5" stroke="#2493e0" stroke-width="1">
      <circle cx="18" cy="18" r="18" stroke="none"/>
      <circle cx="18" cy="18" r="17.5" fill="none"/>
    </g>
    <path id="Path_2410" data-name="Path 2410" d="M0,0H24V24H0Z" transform="translate(106 261)" fill="none"/>
    <path id="money_off_24dp_E3E3E3_FILL0_wght400_GRAD0_opsz24" d="M70.389-841.611a2.889,2.889,0,0,0-.986-1.306,2.606,2.606,0,0,0-1.569-.472,3.428,3.428,0,0,0-.972.139,2.017,2.017,0,0,0-.861.528l-1.611-1.611a3.809,3.809,0,0,1,1.056-.708,4.373,4.373,0,0,1,1.222-.4v-2.333h2.222v2.278a4.987,4.987,0,0,1,2.194,1.014A4.654,4.654,0,0,1,72.5-842.5ZM76.444-826l-5.111-5.111a3.079,3.079,0,0,1-1.139.681,5.328,5.328,0,0,1-1.306.319v2.333H66.667v-2.389a5.521,5.521,0,0,1-2.6-1.417,6,6,0,0,1-1.514-2.583l2.222-.889a4.747,4.747,0,0,0,1.125,2,2.758,2.758,0,0,0,2.1.833,3.181,3.181,0,0,0,.917-.125,3.171,3.171,0,0,0,.806-.375L56-846.444,57.556-848,78-827.556Z" transform="translate(51 1109.988)" fill="#2493e0"/>
  </g>
</svg>
