<svg id="icon-Mentor" xmlns="http://www.w3.org/2000/svg" width="36" height="36" viewBox="0 0 36 36">
  <g id="Ellipse_356" data-name="Ellipse 356" fill="#f0f2f5" stroke="#2493e0" stroke-width="1">
    <circle cx="18" cy="18" r="18" stroke="none"/>
    <circle cx="18" cy="18" r="17.5" fill="none"/>
  </g>
  <path id="Path_2410" data-name="Path 2410" d="M0,0H24V24H0Z" transform="translate(6 6)" fill="none"/>
  <path id="person_24dp_E3E3E3_FILL0_wght400_GRAD0_opsz24" d="M169-791a4.333,4.333,0,0,1-3.178-1.322A4.333,4.333,0,0,1,164.5-795.5a4.333,4.333,0,0,1,1.322-3.178A4.333,4.333,0,0,1,169-800a4.333,4.333,0,0,1,3.178,1.322A4.333,4.333,0,0,1,173.5-795.5a4.333,4.333,0,0,1-1.322,3.178A4.333,4.333,0,0,1,169-791Zm-9,9v-3.15a3.3,3.3,0,0,1,.492-1.758,3.28,3.28,0,0,1,1.308-1.223,16.7,16.7,0,0,1,3.544-1.308,15.477,15.477,0,0,1,3.656-.436,15.477,15.477,0,0,1,3.656.436,16.7,16.7,0,0,1,3.544,1.308,3.28,3.28,0,0,1,1.308,1.223A3.3,3.3,0,0,1,178-785.15V-782Zm2.25-2.25h13.5v-.9a1.058,1.058,0,0,0-.155-.562,1.1,1.1,0,0,0-.408-.394,14.668,14.668,0,0,0-3.066-1.139,13.048,13.048,0,0,0-3.122-.38,13.048,13.048,0,0,0-3.122.38,14.668,14.668,0,0,0-3.066,1.139,1.1,1.1,0,0,0-.408.394,1.058,1.058,0,0,0-.155.563Zm6.75-9a2.167,2.167,0,0,0,1.589-.661,2.167,2.167,0,0,0,.661-1.589,2.167,2.167,0,0,0-.661-1.589A2.167,2.167,0,0,0,169-797.75a2.167,2.167,0,0,0-1.589.661,2.167,2.167,0,0,0-.661,1.589,2.167,2.167,0,0,0,.661,1.589A2.167,2.167,0,0,0,169-793.25ZM169-795.5ZM169-784.25Z" transform="translate(-151 808.996)" fill="#2493e0"/>
</svg>
