<svg xmlns="http://www.w3.org/2000/svg" width="36" height="36" viewBox="0 0 36 36">
  <g id="icon-Paid-Money" transform="translate(-100 -255.004)">
    <g id="Ellipse_356" data-name="Ellipse 356" transform="translate(100 255.004)" fill="#f0f2f5" stroke="#2493e0" stroke-width="1">
      <circle cx="18" cy="18" r="18" stroke="none"/>
      <circle cx="18" cy="18" r="17.5" fill="none"/>
    </g>
    <path id="Path_2410" data-name="Path 2410" d="M0,0H24V24H0Z" transform="translate(106 261)" fill="none"/>
    <path id="paid_24dp_E3E3E3_FILL0_wght400_GRAD0_opsz24" d="M90.01-861.3h1.925v-1.375a5.006,5.006,0,0,0,2.365-1.072,3,3,0,0,0,.99-2.448,3.664,3.664,0,0,0-.66-2.117,5.325,5.325,0,0,0-2.64-1.678,11,11,0,0,1-2.283-.963,1.281,1.281,0,0,1-.632-1.127,1.373,1.373,0,0,1,.509-1.128,2.287,2.287,0,0,1,1.471-.413,2.04,2.04,0,0,1,1.375.426,2.42,2.42,0,0,1,.715,1.059l1.76-.715a3.685,3.685,0,0,0-1.114-1.677,3.062,3.062,0,0,0-1.8-.8V-876.7H90.065v1.375a3.775,3.775,0,0,0-2.145,1.21,3.065,3.065,0,0,0-.77,2.035,2.912,2.912,0,0,0,.756,2.09,6.047,6.047,0,0,0,2.379,1.375,10.522,10.522,0,0,1,2.406,1.128,1.533,1.533,0,0,1,.674,1.293,1.484,1.484,0,0,1-.646,1.334,2.759,2.759,0,0,1-1.554.426A2.5,2.5,0,0,1,89.556-865a3.274,3.274,0,0,1-1.031-1.691l-1.815.715a4.879,4.879,0,0,0,1.2,2.131,4.278,4.278,0,0,0,2.1,1.114ZM91-858a10.711,10.711,0,0,1-4.29-.866,11.109,11.109,0,0,1-3.492-2.351,11.108,11.108,0,0,1-2.351-3.492A10.711,10.711,0,0,1,80-869a10.711,10.711,0,0,1,.866-4.29,11.11,11.11,0,0,1,2.351-3.492,11.109,11.109,0,0,1,3.492-2.351A10.712,10.712,0,0,1,91-880a10.712,10.712,0,0,1,4.29.866,11.109,11.109,0,0,1,3.493,2.351,11.11,11.11,0,0,1,2.351,3.492A10.711,10.711,0,0,1,102-869a10.711,10.711,0,0,1-.866,4.29,11.108,11.108,0,0,1-2.351,3.492,11.109,11.109,0,0,1-3.493,2.351A10.711,10.711,0,0,1,91-858Zm0-2.2a8.493,8.493,0,0,0,6.243-2.557A8.493,8.493,0,0,0,99.8-869a8.493,8.493,0,0,0-2.557-6.242A8.493,8.493,0,0,0,91-877.8a8.493,8.493,0,0,0-6.243,2.558A8.493,8.493,0,0,0,82.2-869a8.493,8.493,0,0,0,2.557,6.242A8.493,8.493,0,0,0,91-860.2ZM91-869Z" transform="translate(27 1141.988)" fill="#2493e0"/>
  </g>
</svg>
